PathFileType	3	(X/Y/Z)	running_2__view2_aligned.trc
DataRate	CameraRate	NumFrames	NumMarkers	Units	OrigDataRate	OrigDataStartFrame	OrigNumFrames
100.0	100.0	7	19	mm	100.0	1002	6434
Frame#	Time	pelvis			neck			head			hip_left			hip_right			knee_left			knee_right			ankle_left			ankle_right			heel_left			heel_right			toe_left			toe_right			shoulder_left			shoulder_right			elbow_left			elbow_right			wrist_left			wrist_right			
		X1	Y1	Z1	X2	Y2	Z2	X3	Y3	Z3	X4	Y4	Z4	X5	Y5	Z5	X6	Y6	Z6	X7	Y7	Z7	X8	Y8	Z8	X9	Y9	Z9	X10	Y10	Z10	X11	Y11	Z11	X12	Y12	Z12	X13	Y13	Z13	X14	Y14	Z14	X15	Y15	Z15	X16	Y16	Z16	X17	Y17	Z17	X18	Y18	Z18	X19	Y19	Z19	
1002	10.01000	45.397891	948.090553	168.062866	41.773522	1495.548653	303.555119	36.665069	1575.683911	454.015304	120.333387	950.680962	168.175886	-29.537652	945.500148	167.949831	137.554202	538.575452	281.010349	-90.321343	535.795394	254.561816	127.877172	132.084531	185.478898	-119.971737	252.864529	-17.389960	123.641779	83.053675	148.972745	-117.830102	241.560202	-69.414140	119.280723	78.909667	374.566267	-137.683766	99.699526	62.583430	203.144683	1454.459363	246.334741	-124.993360	1460.269744	259.563537	297.388514	1230.803030	113.508363	-206.969652	1220.855610	151.021948	287.751423	1076.718003	260.155983	-122.028554	1124.859508	333.022801
1003	10.02000	47.336016	948.438722	167.900812	42.263748	1495.783705	303.908059	35.817069	1576.086558	453.972245	122.245079	951.106591	168.254883	-27.573046	945.770853	167.546733	139.709991	537.650005	273.438009	-88.432808	537.539407	259.742382	130.257278	132.299468	175.029633	-118.412074	252.540626	-6.087468	125.914513	83.731977	138.283087	-116.342893	240.659852	-57.552315	122.105545	77.631031	362.379531	-136.165941	101.354639	75.139843	204.592808	1454.807494	250.273564	-123.597997	1461.300958	257.307120	300.611162	1230.247857	121.455188	-206.017322	1224.556450	143.343457	279.923395	1079.567700	268.648373	-125.643994	1123.538010	323.479280
1004	10.03000	49.274141	948.786892	167.738758	42.753974	1496.018757	304.260999	34.969069	1576.489205	453.929187	124.156770	951.532220	168.333880	-25.608439	946.041559	167.143635	141.865781	536.724558	265.865669	-86.544273	539.283419	264.922947	132.637384	132.514404	164.580367	-116.852411	252.216724	5.215024	128.187246	84.410279	127.593429	-114.855683	239.759502	-45.690490	124.930368	76.352396	350.192794	-134.648115	103.009752	87.696257	206.040932	1455.155625	254.212387	-122.202634	1462.332172	255.050704	303.833810	1229.692684	129.402013	-205.064992	1228.257291	135.664966	272.095367	1082.417398	277.140763	-129.259433	1122.216513	313.935758
1005	10.04000	51.212267	949.135061	167.576703	43.244199	1496.253809	304.613939	34.121069	1576.891852	453.886128	126.068461	951.957849	168.412877	-23.643833	946.312264	166.740537	144.021571	535.799110	258.293329	-84.655739	541.027431	270.103513	135.017490	132.729340	154.131102	-115.292749	251.892822	16.517516	130.459979	85.088581	116.903771	-113.368474	238.859153	-33.828665	127.755191	75.073761	338.006057	-133.130289	104.664864	100.252671	207.489057	1455.503756	258.151210	-120.807271	1463.363386	252.794287	307.056457	1229.137510	137.348838	-204.112662	1231.958131	127.986474	264.267339	1085.267096	285.633153	-132.874872	1120.895015	304.392236
1006	10.05000	53.150392	949.483231	167.414649	43.734425	1496.488861	304.966878	33.273069	1577.294500	453.843069	127.980152	952.383478	168.491874	-21.679226	946.582969	166.337439	146.177360	534.873663	250.720989	-82.767204	542.771443	275.284078	137.397595	132.944277	143.681836	-113.733086	251.568920	27.820008	132.732712	85.766883	106.214113	-111.881264	237.958803	-21.966840	130.580013	73.795125	325.819321	-131.612463	106.319977	112.809085	208.937181	1455.851887	262.090033	-119.411908	1464.394600	250.537871	310.279105	1228.582337	145.295663	-203.160332	1235.658971	120.307983	256.439311	1088.116793	294.125543	-136.490311	1119.573517	294.848715
1007	10.06000	55.088517	949.831400	167.252595	44.224650	1496.723913	305.319818	32.425069	1577.697147	453.800010	129.891843	952.809108	168.570870	-19.714620	946.853674	165.934341	148.333150	533.948215	243.148649	-80.878670	544.515455	280.464644	139.777701	133.159213	133.232571	-112.173423	251.245018	39.122500	135.005446	86.445185	95.524455	-110.394055	237.058453	-10.105015	133.404836	72.516490	313.632584	-130.094637	107.975090	125.365499	210.385306	1456.200018	266.028856	-118.016544	1465.425815	248.281454	313.501752	1228.027164	153.242488	-202.208002	1239.359812	112.629491	248.611283	1090.966491	302.617934	-140.105750	1118.252020	285.305193
1008	10.07000	57.026643	950.179570	167.090541	44.714876	1496.958965	305.672758	31.577069	1578.099794	453.756951	131.803534	953.234737	168.649867	-17.750014	947.124379	165.531242	150.488940	533.022768	235.576310	-78.990135	546.259467	285.645210	142.157807	133.374149	122.783305	-110.613761	250.921115	50.424992	137.278179	87.123487	84.834797	-108.906846	236.158104	1.756810	136.229659	71.237854	301.445848	-128.576811	109.630203	137.921912	211.833431	1456.548149	269.967679	-116.621181	1466.457029	246.025038	316.724400	1227.471990	161.189313	-201.255672	1243.060652	104.951000	240.783255	1093.816189	311.110324	-143.721189	1116.930522	275.761671
